<svg xmlns="http://www.w3.org/2000/svg" viewBox="0 0 32 32">
  <path d="M 15 3 L 15 5.203125 C 13.566917 5.3397252 12.236402 5.7084881 11.015625 6.34375 L 9.8417969 4.5078125 L 8.1582031 5.5839844 L 9.3574219 7.4628906 C 8.3848686 8.2211172 7.5983166 9.1147956 6.9257812 10.152344 L 4.9277344 9.1132812 L 4.0058594 10.886719 L 5.8417969 11.841797 C 5.4403925 12.818374 5.3072598 13.907512 5.203125 15 L 3 15 L 3 17 L 5.203125 17 C 5.3072598 18.092488 5.4403925 19.181626 5.8417969 20.158203 L 4.0058594 21.113281 L 4.9277344 22.886719 L 6.9257812 21.847656 C 7.5983165 22.885204 8.3848686 23.778883 9.3574219 24.537109 L 8.1582031 26.416016 L 9.8417969 27.492188 L 11.015625 25.65625 C 12.236402 26.291512 13.566917 26.660275 15 26.796875 L 15 29 L 17 29 L 17 26.796875 C 18.433083 26.660275 19.763598 26.291512 20.984375 25.65625 L 22.158203 27.492188 L 23.841797 26.416016 L 22.642578 24.537109 C 23.615131 23.778883 24.401683 22.885204 25.074219 21.847656 L 27.072266 22.886719 L 27.994141 21.113281 L 26.158203 20.158203 C 26.559608 19.181626 26.69274 18.092488 26.796875 17 L 29 17 L 29 15 L 26.796875 15 C 26.69274 13.907512 26.559608 12.818374 26.158203 11.841797 L 27.994141 10.886719 L 27.072266 9.1132812 L 25.074219 10.152344 C 24.401683 9.1147957 23.615131 8.2211172 22.642578 7.4628906 L 23.841797 5.5839844 L 22.158203 4.5078125 L 20.984375 6.34375 C 19.763598 5.7084881 18.433083 5.3397252 17 5.203125 L 17 3 L 15 3 z M 16 7 C 20.627306 7 24.281365 10.514826 24.798828 15 L 7.2011719 15 C 7.7186352 10.514826 11.372694 7 16 7 z M 16 9 A 1 1 0 0 0 16 11 A 1 1 0 0 0 16 9 z M 11 11 A 1 1 0 0 0 11 13 A 1 1 0 0 0 11 11 z M 21 11 A 1 1 0 0 0 21 13 A 1 1 0 0 0 21 11 z M 7.2011719 17 L 24.798828 17 C 24.281365 21.485174 20.627306 25 16 25 C 11.372694 25 7.7186352 21.485174 7.2011719 17 z M 11 19 A 1 1 0 0 0 11 21 A 1 1 0 0 0 11 19 z M 21 19 A 1 1 0 0 0 21 21 A 1 1 0 0 0 21 19 z M 16 21 A 1 1 0 0 0 16 23 A 1 1 0 0 0 16 21 z"></path>
</svg>